<svg width="20" height="20" viewBox="0 0 20 20" fill="none" xmlns="http://www.w3.org/2000/svg">
<g clip-path="url(#clip0_213:2994)">
<path d="M19.1671 15.8333C19.1671 16.2754 18.9915 16.6993 18.6789 17.0118C18.3664 17.3244 17.9424 17.5 17.5004 17.5H2.50041C2.05838 17.5 1.63446 17.3244 1.3219 17.0118C1.00933 16.6993 0.83374 16.2754 0.83374 15.8333V6.66667C0.83374 6.22464 1.00933 5.80072 1.3219 5.48816C1.63446 5.17559 2.05838 5 2.50041 5H5.83374L7.50041 2.5H12.5004L14.1671 5H17.5004C17.9424 5 18.3664 5.17559 18.6789 5.48816C18.9915 5.80072 19.1671 6.22464 19.1671 6.66667V15.8333Z" stroke="#6C8DC4" stroke-width="2" stroke-linecap="round" stroke-linejoin="round"/>
<path d="M10.0006 14.1667C11.8415 14.1667 13.3339 12.6743 13.3339 10.8333C13.3339 8.99238 11.8415 7.5 10.0006 7.5C8.15962 7.5 6.66724 8.99238 6.66724 10.8333C6.66724 12.6743 8.15962 14.1667 10.0006 14.1667Z" stroke="#6C8DC4" stroke-width="2" stroke-linecap="round" stroke-linejoin="round"/>
</g>
<defs>
<clipPath id="clip0_213:2994">
<rect width="20" height="20" fill="white" transform="translate(0.000488281)"/>
</clipPath>
</defs>
</svg>
