<svg width="18" height="18" viewBox="0 0 18 18" fill="none" xmlns="http://www.w3.org/2000/svg">
<g clip-path="url(#clip0_263:1348)">
<path d="M8.59158 1.2365C8.99054 0.773173 9.70819 0.773172 10.1072 1.2365L11.2861 2.60572C11.5133 2.86955 11.8614 2.99624 12.205 2.94016L13.9883 2.64911C14.5917 2.55063 15.1415 3.01193 15.1493 3.6233L15.1723 5.43002C15.1767 5.77816 15.3619 6.09893 15.6612 6.27685L17.2144 7.20016C17.7399 7.5126 17.8645 8.21935 17.4775 8.69271L16.3339 10.0915C16.1135 10.3611 16.0492 10.7259 16.1641 11.0545L16.7603 12.7602C16.9621 13.3373 16.6033 13.9588 16.0025 14.0727L14.2273 14.4091C13.8852 14.4739 13.6015 14.712 13.4782 15.0376L12.8386 16.7275C12.6222 17.2994 11.9478 17.5448 11.4145 17.2459L9.83828 16.3625C9.53456 16.1922 9.16417 16.1922 8.86045 16.3625L7.28427 17.2459C6.7509 17.5448 6.07652 17.2994 5.8601 16.7275L5.22051 15.0376C5.09727 14.712 4.81353 14.4739 4.47145 14.4091L2.69618 14.0727C2.09545 13.9588 1.73662 13.3373 1.93839 12.7602L2.53468 11.0545C2.64958 10.7259 2.58526 10.3611 2.36488 10.0915L1.22119 8.69271C0.834182 8.21935 0.958802 7.5126 1.48437 7.20016L3.03751 6.27685C3.33679 6.09893 3.52199 5.77816 3.52643 5.43002L3.54947 3.6233C3.55726 3.01193 4.10702 2.55063 4.71046 2.64911L6.49373 2.94016C6.83736 2.99624 7.18541 2.86956 7.4126 2.60572L8.59158 1.2365Z" fill="#598EC7"/>
<path d="M12.3494 7.10645L8.22437 11.6064L6.34937 9.56099" stroke="white" stroke-width="1.5" stroke-linecap="round" stroke-linejoin="round"/>
</g>
<defs>
<clipPath id="clip0_263:1348">
<rect width="18" height="18" fill="white"/>
</clipPath>
</defs>
</svg>
