<svg width="24" height="25" viewBox="0 0 24 25" fill="none" xmlns="http://www.w3.org/2000/svg">
<path d="M11 4.70459H4C3.46957 4.70459 2.96086 4.9153 2.58579 5.29038C2.21071 5.66545 2 6.17416 2 6.70459V20.7046C2 21.235 2.21071 21.7437 2.58579 22.1188C2.96086 22.4939 3.46957 22.7046 4 22.7046H18C18.5304 22.7046 19.0391 22.4939 19.4142 22.1188C19.7893 21.7437 20 21.235 20 20.7046V13.7046" stroke="#66749A" stroke-width="2" stroke-linecap="round" stroke-linejoin="round"/>
<path d="M18.5 3.20482C18.8978 2.80699 19.4374 2.5835 20 2.5835C20.5626 2.5835 21.1022 2.80699 21.5 3.20482C21.8978 3.60264 22.1213 4.14221 22.1213 4.70482C22.1213 5.26743 21.8978 5.80699 21.5 6.20482L12 15.7048L8 16.7048L9 12.7048L18.5 3.20482Z" stroke="#66749A" stroke-width="2" stroke-linecap="round" stroke-linejoin="round"/>
</svg>
