<svg width="25" height="25" viewBox="0 0 25 25" fill="none" xmlns="http://www.w3.org/2000/svg">
<g clip-path="url(#clip0_213:2932)">
<path d="M14.8041 15.078C14.5294 15.3728 14.1982 15.6092 13.8302 15.7732C13.4622 15.9371 13.065 16.0253 12.6622 16.0324C12.2594 16.0395 11.8592 15.9654 11.4857 15.8145C11.1121 15.6636 10.7728 15.4391 10.4879 15.1542C10.2031 14.8693 9.97848 14.53 9.82759 14.1564C9.67671 13.7829 9.60261 13.3828 9.60972 12.9799C9.61682 12.5771 9.70499 12.1799 9.86896 11.8119C10.0329 11.4439 10.2693 11.1127 10.5641 10.838M18.6241 18.898C16.9147 20.201 14.8332 20.9229 12.6841 20.958C5.68408 20.958 1.68408 12.958 1.68408 12.958C2.92797 10.6399 4.65322 8.61464 6.74408 7.01803L18.6241 18.898ZM10.5841 5.19803C11.2724 5.03691 11.9771 4.95637 12.6841 4.95803C19.6841 4.95803 23.6841 12.958 23.6841 12.958C23.0771 14.0936 22.3531 15.1628 21.5241 16.148L10.5841 5.19803Z" stroke="#9597A1" stroke-width="2" stroke-linecap="round" stroke-linejoin="round"/>
<path d="M1.68408 1.95801L23.6841 23.958" stroke="#9597A1" stroke-width="2" stroke-linecap="round" stroke-linejoin="round"/>
</g>
<defs>
<clipPath id="clip0_213:2932">
<rect width="24" height="24" fill="white" transform="translate(0.684082 0.958008)"/>
</clipPath>
</defs>
</svg>
