<svg width="32" height="30" viewBox="0 0 32 30" fill="none" xmlns="http://www.w3.org/2000/svg">
<path d="M28.6867 4.02403C27.9537 3.27663 27.0833 2.68373 26.1254 2.27922C25.1675 1.87471 24.1407 1.6665 23.1038 1.6665C22.0669 1.6665 21.0402 1.87471 20.0822 2.27922C19.1243 2.68373 18.254 3.27663 17.5209 4.02403L15.9996 5.57443L14.4783 4.02403C12.9976 2.51503 10.9894 1.66729 8.89541 1.66729C6.80142 1.66729 4.79319 2.51503 3.31251 4.02403C1.83184 5.53303 1 7.57967 1 9.71371C1 11.8478 1.83184 13.8944 3.31251 15.4034L4.83382 16.9538L15.9996 28.3332L27.1654 16.9538L28.6867 15.4034C29.4201 14.6563 30.0019 13.7694 30.3988 12.7931C30.7957 11.8168 31 10.7705 31 9.71371C31 8.65697 30.7957 7.61058 30.3988 6.63433C30.0019 5.65807 29.4201 4.77108 28.6867 4.02403V4.02403Z" stroke="#598EC7" stroke-width="2" stroke-linecap="round" stroke-linejoin="round"/>
</svg>
