<svg width="18" height="18" viewBox="0 0 18 18" fill="none" xmlns="http://www.w3.org/2000/svg">
<path d="M9 2.561L2 8.161V16H7V12H11V16H16V8.642C16.0001 8.49203 15.9664 8.34397 15.9015 8.20878C15.8366 8.07359 15.7421 7.95473 15.625 7.861L9 2.561ZM9 0L16.874 6.3C17.2251 6.58088 17.5086 6.93709 17.7035 7.3423C17.8984 7.74751 17.9997 8.19135 18 8.641V16C18 16.5304 17.7893 17.0391 17.4142 17.4142C17.0391 17.7893 16.5304 18 16 18H2C1.46957 18 0.960859 17.7893 0.585786 17.4142C0.210714 17.0391 0 16.5304 0 16V8.161C3.73977e-05 7.86123 0.0674587 7.56531 0.197278 7.29511C0.327098 7.02491 0.515995 6.78735 0.75 6.6L9 0Z" fill="#63729A"/>
</svg>
