<svg width="27" height="26" viewBox="0 0 27 26" fill="none" xmlns="http://www.w3.org/2000/svg">
<path fill-rule="evenodd" clip-rule="evenodd" d="M8.39812 1.15548C9.71775 1.09698 10.1385 1.08398 13.5 1.08398C16.8615 1.08398 17.2822 1.09807 18.6007 1.15548C19.9192 1.2129 20.8192 1.41548 21.6067 1.70907C22.4314 2.00915 23.1795 2.47823 23.7982 3.0849C24.4282 3.67965 24.9142 4.39898 25.2247 5.19415C25.5307 5.95248 25.74 6.81915 25.8007 8.08665C25.8615 9.35957 25.875 9.76473 25.875 13.0007C25.875 16.2376 25.8604 16.6428 25.8007 17.9136C25.7411 19.1811 25.5307 20.0477 25.2247 20.8061C24.9142 21.6013 24.4274 22.3219 23.7982 22.9175C23.1795 23.5241 22.4314 23.9922 21.6067 24.2912C20.8192 24.5858 19.9192 24.7873 18.603 24.8458C17.2822 24.9043 16.8615 24.9173 13.5 24.9173C10.1385 24.9173 9.71775 24.9032 8.39812 24.8458C7.08187 24.7884 6.18187 24.5858 5.39437 24.2912C4.56854 23.9921 3.8203 23.5233 3.20175 22.9175C2.57218 22.3224 2.08498 21.6022 1.77412 20.8071C1.46925 20.0488 1.26 19.1821 1.19925 17.9146C1.1385 16.6417 1.125 16.2366 1.125 13.0007C1.125 9.76365 1.13962 9.35848 1.19925 8.08882C1.25887 6.81915 1.46925 5.95248 1.77412 5.19415C2.08544 4.39907 2.57301 3.67891 3.20287 3.08382C3.82054 2.47769 4.56803 2.00855 5.39325 1.70907C6.18075 1.41548 7.08075 1.21398 8.397 1.15548H8.39812ZM18.5006 3.30048C17.1956 3.24307 16.8041 3.23115 13.5 3.23115C10.1959 3.23115 9.80437 3.24307 8.49937 3.30048C7.29225 3.35357 6.6375 3.54748 6.201 3.71107C5.62387 3.92773 5.211 4.18448 4.77787 4.60157C4.3673 4.98621 4.05133 5.45446 3.85312 5.97198C3.68325 6.39232 3.48187 7.02282 3.42675 8.18523C3.36712 9.4419 3.35475 9.8189 3.35475 13.0007C3.35475 16.1824 3.36712 16.5594 3.42675 17.8161C3.48187 18.9785 3.68325 19.609 3.85312 20.0293C4.05112 20.5461 4.36725 21.0152 4.77787 21.3997C5.17725 21.7952 5.66437 22.0996 6.201 22.2902C6.6375 22.4538 7.29225 22.6477 8.49937 22.7008C9.80437 22.7582 10.1947 22.7701 13.5 22.7701C16.8052 22.7701 17.1956 22.7582 18.5006 22.7008C19.7077 22.6477 20.3625 22.4538 20.799 22.2902C21.3761 22.0736 21.789 21.8168 22.2221 21.3997C22.6327 21.0152 22.9489 20.5461 23.1469 20.0293C23.3167 19.609 23.5181 18.9785 23.5732 17.8161C23.6329 16.5594 23.6452 16.1824 23.6452 13.0007C23.6452 9.8189 23.6329 9.4419 23.5732 8.18523C23.5181 7.02282 23.3167 6.39232 23.1469 5.97198C22.9219 5.41623 22.6552 5.01865 22.2221 4.60157C21.8227 4.20623 21.3364 3.90196 20.799 3.71107C20.3625 3.54748 19.7077 3.35357 18.5006 3.30048ZM11.9194 16.6742C12.8021 17.0281 13.785 17.0758 14.7003 16.8093C15.6155 16.5429 16.4063 15.9786 16.9376 15.2131C17.4688 14.4475 17.7076 13.5281 17.6131 12.6118C17.5185 11.6956 17.0966 10.8394 16.4194 10.1894C15.9876 9.77392 15.4656 9.45578 14.8909 9.25789C14.3161 9.06001 13.703 8.98729 13.0956 9.04498C12.4881 9.10268 11.9015 9.28934 11.378 9.59154C10.8545 9.89374 10.4071 10.304 10.068 10.7927C9.72884 11.2814 9.50646 11.8364 9.41683 12.4178C9.3272 12.9992 9.37254 13.5925 9.54961 14.155C9.72667 14.7175 10.031 15.2351 10.4408 15.6708C10.8506 16.1064 11.3556 16.4491 11.9194 16.6742ZM9.00225 8.66948C9.5929 8.10071 10.2941 7.64953 11.0658 7.34171C11.8376 7.03389 12.6647 6.87546 13.5 6.87546C14.3353 6.87546 15.1624 7.03389 15.9342 7.34171C16.7059 7.64953 17.4071 8.10071 17.9977 8.66948C18.5884 9.23826 19.0569 9.9135 19.3766 10.6566C19.6963 11.3998 19.8608 12.1963 19.8608 13.0007C19.8608 13.805 19.6963 14.6015 19.3766 15.3447C19.0569 16.0878 18.5884 16.763 17.9977 17.3318C16.8049 18.4805 15.187 19.1258 13.5 19.1258C11.813 19.1258 10.1951 18.4805 9.00225 17.3318C7.80937 16.1831 7.13922 14.6252 7.13922 13.0007C7.13922 11.3761 7.80937 9.81818 9.00225 8.66948ZM21.2715 7.78765C21.4179 7.65469 21.535 7.4948 21.6161 7.31746C21.6971 7.14011 21.7404 6.9489 21.7433 6.75516C21.7463 6.56142 21.7088 6.36908 21.6332 6.18953C21.5575 6.00998 21.4452 5.84687 21.303 5.70986C21.1607 5.57285 20.9913 5.46472 20.8048 5.39188C20.6184 5.31904 20.4186 5.28296 20.2175 5.28578C20.0163 5.28861 19.8177 5.33028 19.6335 5.40832C19.4494 5.48637 19.2833 5.5992 19.1452 5.74015C18.8767 6.01427 18.7297 6.37837 18.7354 6.75516C18.7411 7.13195 18.8991 7.49177 19.1758 7.75823C19.4525 8.02469 19.8262 8.17681 20.2175 8.18231C20.6087 8.1878 20.9868 8.04623 21.2715 7.78765Z" fill="#6C8DC4"/>
</svg>
