<svg width="16" height="15" viewBox="0 0 16 15" fill="none" xmlns="http://www.w3.org/2000/svg">
<path d="M14.9628 5.20694L10.4997 4.55831L8.5046 0.513581C8.45011 0.402839 8.36046 0.31319 8.24972 0.258698C7.97198 0.121589 7.63448 0.235846 7.49562 0.513581L5.5005 4.55831L1.03741 5.20694C0.914367 5.22452 0.801867 5.28253 0.715734 5.37042C0.611604 5.47744 0.554224 5.62143 0.556202 5.77074C0.558179 5.92006 0.619353 6.06248 0.726281 6.16671L3.95538 9.31495L3.19249 13.7605C3.1746 13.8639 3.18605 13.9702 3.22552 14.0675C3.265 14.1647 3.33094 14.2489 3.41585 14.3106C3.50077 14.3723 3.60127 14.4089 3.70595 14.4164C3.81063 14.4239 3.91531 14.4018 4.00812 14.3528L8.00011 12.254L11.9921 14.3528C12.1011 14.4108 12.2276 14.4302 12.3489 14.4091C12.6548 14.3564 12.8605 14.0663 12.8077 13.7605L12.0448 9.31495L15.2739 6.16671C15.3618 6.08057 15.4198 5.96807 15.4374 5.84503C15.4849 5.53741 15.2704 5.25264 14.9628 5.20694Z" fill="#598EC7"/>
</svg>
