<svg width="28" height="30" viewBox="0 0 28 30" fill="none" xmlns="http://www.w3.org/2000/svg">
<path d="M13.9998 0.333008C8.86116 0.333008 4.6665 4.52767 4.6665 9.66633C4.6665 12.8797 6.3065 15.7357 8.79183 17.417C4.03583 19.457 0.666504 24.173 0.666504 29.6663H3.33317C3.33317 23.7597 8.09316 18.9997 13.9998 18.9997C19.9065 18.9997 24.6665 23.7597 24.6665 29.6663H27.3331C27.3331 24.173 23.9638 19.4557 19.2078 17.4157C20.4766 16.5597 21.5162 15.4057 22.2354 14.0546C22.9546 12.7036 23.3315 11.1969 23.3332 9.66633C23.3332 4.52767 19.1385 0.333008 13.9998 0.333008ZM13.9998 2.99967C17.6972 2.99967 20.6665 5.969 20.6665 9.66633C20.6665 13.3637 17.6972 16.333 13.9998 16.333C10.3025 16.333 7.33316 13.3637 7.33316 9.66633C7.33316 5.969 10.3025 2.99967 13.9998 2.99967Z" fill="#598EC7"/>
</svg>
